<svg height="479pt" viewBox="-32 0 479 479.97588" width="479pt" xmlns="http://www.w3.org/2000/svg"><path d="m240.5 63.976562c0-17.671874-14.328125-32-32-32s-32 14.328126-32 32c0 17.675782 14.328125 32 32 32s32-14.324218 32-32zm-32 16c-8.835938 0-16-7.164062-16-16 0-8.835937 7.164062-16 16-16s16 7.164063 16 16c0 8.835938-7.164062 16-16 16zm0 0"/><path d="m414.652344 290.847656-40-48c-1.574219-1.738281-3.808594-2.726562-6.152344-2.726562s-4.578125.988281-6.152344 2.726562l-40 48c-1.992187 2.386719-2.421875 5.710938-1.105468 8.523438 1.320312 2.816406 4.148437 4.609375 7.257812 4.605468h12.710938c-11.847657 48.21875-54.75 85.425782-108.710938 94.097657v-206.097657h72c4.417969 0 8-3.582031 8-8v-32c0-4.417968-3.582031-8-8-8h-72v-20.648437c28.398438-11.484375 44.671875-41.484375 38.820312-71.554687-5.851562-30.066407-32.1875-51.773438-62.820312-51.773438s-56.96875 21.707031-62.820312 51.773438c-5.851563 30.070312 10.421874 60.070312 38.820312 71.554687v20.648437h-72c-4.417969 0-8 3.582032-8 8v32c0 4.417969 3.582031 8 8 8h72v206.097657c-53.960938-8.671875-96.863281-45.878907-108.710938-94.097657h12.710938c3.105469.003907 5.9375-1.789062 7.253906-4.605468 1.320313-2.8125.890625-6.136719-1.101562-8.523438l-40-48c-1.574219-1.738281-3.808594-2.726562-6.152344-2.726562s-4.578125.988281-6.152344 2.726562l-40 48c-1.992187 2.386719-2.4218748 5.710938-1.105468 8.523438 1.320312 2.816406 4.148437 4.609375 7.257812 4.605468h17.871094c11.648437 74.402344 76.527344 132.882813 158.128906 142.59375v9.40625c0 2.121094.84375 4.15625 2.34375 5.65625l16 16c3.125 3.125 8.1875 3.125 11.3125 0l16-16c1.5-1.5 2.34375-3.535156 2.34375-5.65625v-9.40625c81.601562-9.710937 146.480469-68.191406 158.128906-142.59375h17.871094c3.105469.003907 5.9375-1.789062 7.253906-4.605468 1.320313-2.8125.890625-6.136719-1.101562-8.523438zm-31.03125-2.871094c-4.085938 0-7.511719 3.078126-7.953125 7.136719-7.914063 72.375-71.761719 129.6875-151.824219 136.25-4.160156.339844-7.359375 3.824219-7.34375 8v13.328125l-8 8-8-8v-13.355468c.015625-4.171876-3.183594-7.65625-7.34375-8-80.066406-6.558594-143.914062-63.847657-151.855469-136.222657-.441406-4.046875-3.851562-7.117187-7.921875-7.136719h-7.800781l22.921875-27.503906 22.917969 27.503906h-5.398438c-2.339843.003907-4.558593 1.027344-6.078125 2.804688-1.519531 1.78125-2.183594 4.132812-1.816406 6.445312 9.886719 62.503907 64.796875 110.984376 133.597656 117.917969 2.257813.226563 4.503906-.515625 6.183594-2.039062 1.675781-1.527344 2.628906-3.691407 2.617188-5.960938v-223.167969c0-4.417968-3.582032-8-8-8h-72.023438v-16h72c4.417969 0 8-3.582031 8-8v-34.320312c-.003906-3.539062-2.328125-6.652344-5.71875-7.664062-22.839844-6.808594-37.21875-29.347657-33.777344-52.929688s23.664063-41.066406 47.496094-41.066406 44.054688 17.484375 47.496094 41.066406-10.9375 46.121094-33.777344 52.929688c-3.390625 1.011718-5.71875 4.125-5.71875 7.664062v34.320312c0 4.417969 3.582031 8 8 8h72v16h-72c-4.417969 0-8 3.582032-8 8v223.199219c-.011719 2.269531.941406 4.4375 2.617188 5.960938 1.679687 1.527343 3.925781 2.269531 6.183593 2.039062 68.742188-6.933593 123.679688-55.414062 133.597657-117.917969.378906-2.320312-.285157-4.6875-1.8125-6.472656-1.523438-1.789062-3.757813-2.8125-6.105469-2.808594h-5.402344l22.921875-27.503906 22.917969 27.503906zm0 0"/></svg>